<?xml version="1.0" standalone="no"?>
<!DOCTYPE svg PUBLIC "-//W3C//DTD SVG 20010904//EN"
 "http://www.w3.org/TR/2001/REC-SVG-20010904/DTD/svg10.dtd">
<svg version="1.0" xmlns="http://www.w3.org/2000/svg"
 width="512.000000pt" height="512.000000pt" viewBox="0 0 512.000000 512.000000"
 preserveAspectRatio="xMidYMid meet">

<g transform="translate(0.000000,512.000000) scale(0.100000,-0.100000)"
fill="#000000" stroke="none">
<path d="M2305 5105 c-404 -50 -806 -222 -1113 -479 -167 -139 -351 -351 -465
-536 -149 -243 -260 -565 -297 -862 -16 -129 -13 -368 5 -473 81 -467 377
-1070 920 -1876 219 -325 328 -472 410 -553 440 -435 1157 -433 1594 5 80 79
207 252 427 579 522 776 819 1386 899 1845 33 188 13 518 -44 741 -141 553
-500 1034 -989 1325 -398 237 -885 340 -1347 284z m609 -489 c163 -38 268 -76
417 -152 438 -225 764 -650 869 -1132 87 -400 31 -680 -245 -1232 -178 -357
-441 -782 -768 -1240 -127 -178 -189 -243 -284 -299 -123 -72 -178 -86 -343
-86 -165 0 -221 14 -340 85 -98 58 -163 127 -304 325 -313 438 -576 865 -751
1215 -237 474 -308 743 -275 1040 42 385 196 720 454 988 246 255 521 411 857
486 155 34 157 34 389 32 183 -2 218 -6 324 -30z"/>
<path d="M2427 3830 c-335 -61 -596 -295 -689 -617 -31 -106 -33 -343 -4 -443
43 -147 107 -260 210 -369 80 -83 149 -134 249 -182 128 -61 220 -81 367 -81
156 0 245 21 390 94 93 46 116 63 205 153 138 138 205 260 241 437 22 108 15
292 -16 398 -48 166 -165 340 -298 441 -80 61 -223 131 -312 154 -76 19 -274
28 -343 15z m296 -449 c79 -31 177 -123 217 -205 83 -167 51 -356 -81 -489
-246 -246 -659 -111 -719 234 -22 125 20 257 111 354 62 66 101 91 177 116 78
26 214 21 295 -10z"/>
</g>
</svg>
