<?xml version="1.0" standalone="no"?>
<!DOCTYPE svg PUBLIC "-//W3C//DTD SVG 20010904//EN"
 "http://www.w3.org/TR/2001/REC-SVG-20010904/DTD/svg10.dtd">
<svg version="1.0" xmlns="http://www.w3.org/2000/svg"
 width="512.000000pt" height="512.000000pt" viewBox="0 0 512.000000 512.000000"
 preserveAspectRatio="xMidYMid meet">

<g transform="translate(0.000000,512.000000) scale(0.100000,-0.100000)"
fill="#000000" stroke="none">
<path d="M940 5104 c-122 -26 -211 -80 -394 -239 -174 -150 -252 -234 -322
-345 -136 -215 -200 -431 -211 -710 -10 -265 26 -487 127 -790 258 -775 875
-1591 1679 -2218 205 -161 527 -365 757 -480 313 -157 671 -268 974 -303 134
-15 374 -6 500 20 240 48 462 157 636 310 67 59 296 327 336 393 109 178 126
385 49 584 -54 137 -103 191 -341 375 -117 90 -260 202 -318 247 -59 46 -133
97 -165 114 -179 90 -416 90 -593 0 -65 -33 -57 -27 -304 -225 l-172 -139
-162 80 c-560 277 -1021 751 -1270 1305 l-44 99 125 156 c69 87 143 179 165
206 153 191 182 481 70 702 -16 33 -70 111 -120 174 -50 63 -162 207 -249 320
-97 125 -177 219 -208 243 -151 115 -358 162 -545 121z m248 -441 c44 -24 77
-62 243 -278 106 -137 207 -269 225 -292 41 -54 58 -126 43 -191 -13 -60 -3
-46 -228 -326 -106 -132 -200 -254 -208 -270 -28 -54 -21 -130 21 -236 327
-812 974 -1459 1786 -1786 106 -42 182 -49 236 -21 16 8 138 102 270 208 280
225 266 215 326 228 67 15 136 -2 196 -47 450 -342 542 -418 567 -466 28 -55
32 -115 13 -178 -13 -43 -221 -295 -300 -363 -104 -89 -267 -163 -425 -190
-170 -30 -404 -16 -608 36 -830 212 -1841 1008 -2439 1921 -394 601 -548 1167
-436 1602 54 213 132 333 330 509 80 71 163 137 185 148 61 28 141 25 203 -8z"/>
<path d="M2891 5094 c-132 -66 -157 -229 -52 -334 54 -54 102 -70 212 -70 163
0 395 -50 574 -123 402 -164 711 -455 900 -849 100 -208 150 -405 164 -648 9
-154 22 -192 83 -245 106 -90 261 -57 324 70 26 55 27 59 20 183 -29 566 -253
1059 -662 1452 -343 330 -786 532 -1268 579 -179 18 -234 15 -295 -15z"/>
<path d="M2921 4255 c-94 -30 -160 -135 -145 -232 16 -105 111 -183 223 -183
131 0 285 -43 411 -113 103 -57 260 -214 317 -317 70 -126 113 -280 113 -411
0 -204 237 -303 368 -153 56 63 67 113 53 251 -6 59 -20 144 -31 189 -114 480
-506 857 -988 953 -138 27 -266 34 -321 16z"/>
</g>
</svg>
