<?xml version="1.0" standalone="no"?>
<!DOCTYPE svg PUBLIC "-//W3C//DTD SVG 20010904//EN"
 "http://www.w3.org/TR/2001/REC-SVG-20010904/DTD/svg10.dtd">
<svg version="1.0" xmlns="http://www.w3.org/2000/svg"
 width="512.000000pt" height="512.000000pt" viewBox="0 0 512.000000 512.000000"
 preserveAspectRatio="xMidYMid meet">

<g transform="translate(0.000000,512.000000) scale(0.100000,-0.100000)"
fill="#000000" stroke="none">
<path d="M1934 5104 c-17 -8 -117 -109 -222 -223 l-192 -208 -252 -117 c-139
-65 -265 -129 -280 -144 -15 -14 -32 -39 -37 -56 -6 -17 -24 -152 -42 -300
l-31 -269 -139 -251 c-77 -137 -140 -259 -141 -271 -4 -56 14 -98 142 -330
l139 -250 32 -275 c18 -159 38 -289 46 -308 21 -43 44 -59 207 -133 76 -35
140 -68 143 -74 2 -6 -86 -328 -197 -714 -110 -387 -200 -715 -200 -730 1 -67
77 -141 148 -141 18 0 161 45 318 101 157 55 287 99 288 97 112 -145 372 -461
391 -476 57 -45 136 -40 189 12 30 31 43 68 171 520 77 267 142 486 145 486 3
0 68 -219 145 -486 116 -407 142 -490 165 -514 50 -54 117 -65 179 -29 22 13
94 94 191 215 85 107 171 212 190 234 l35 40 283 -100 c156 -55 297 -100 314
-100 71 0 136 57 145 128 3 28 -46 214 -197 741 -110 388 -199 710 -197 716 3
5 69 40 148 75 150 68 203 107 213 157 3 15 20 147 37 293 l30 265 139 250
c128 232 146 274 142 330 -1 12 -64 134 -141 271 l-139 251 -31 269 c-18 148
-36 283 -42 300 -5 17 -22 42 -37 57 -15 14 -141 78 -280 143 l-253 118 -191
208 c-185 200 -229 238 -280 238 -13 0 -146 -24 -294 -54 l-270 -54 -275 54
c-151 30 -285 54 -299 54 -14 0 -39 -7 -56 -16z m881 -348 l254 51 173 -189
c194 -211 147 -179 490 -338 155 -72 157 -73 162 -109 3 -20 18 -135 32 -256
l25 -220 125 -226 c68 -124 124 -228 124 -232 0 -4 -53 -102 -119 -219 -65
-117 -121 -223 -125 -234 -3 -12 -20 -130 -36 -263 -16 -132 -31 -245 -34
-249 -2 -4 -107 -55 -232 -113 l-227 -104 -180 -193 c-146 -156 -184 -192
-201 -188 -12 2 -125 25 -253 50 l-231 46 -234 -46 c-128 -25 -242 -47 -254
-50 -17 -4 -55 32 -201 188 l-180 193 -227 105 c-125 58 -230 108 -233 113 -2
4 -18 116 -34 249 -16 133 -32 251 -35 262 -4 11 -60 117 -125 234 -66 117
-119 215 -119 219 0 4 56 108 124 232 l125 226 30 254 c16 139 31 255 33 256
2 2 80 39 173 83 94 44 199 93 235 110 58 28 84 52 238 220 l173 189 254 -51
255 -51 255 51z m-959 -3315 c66 -69 74 -74 120 -78 32 -3 105 6 208 26 87 18
160 30 161 29 4 -4 -261 -928 -268 -934 -3 -3 -63 67 -134 155 -129 162 -174
201 -231 201 -12 0 -110 -31 -219 -70 -108 -38 -199 -67 -201 -65 -3 3 262
948 284 1015 4 10 37 -19 107 -95 56 -60 134 -143 173 -184z m1834 -234 c78
-274 140 -500 138 -502 -2 -2 -95 28 -206 67 -221 77 -244 80 -302 32 -16 -14
-86 -95 -154 -179 l-124 -154 -134 472 c-75 260 -132 473 -129 475 4 1 74 -11
155 -28 173 -35 220 -37 261 -11 17 10 100 93 185 185 103 112 156 163 161
154 4 -7 71 -237 149 -511z"/>
<path d="M2425 4310 c-421 -54 -780 -364 -900 -777 -150 -516 125 -1088 620
-1289 160 -66 222 -77 410 -78 148 -1 182 2 259 23 452 119 767 483 816 946
42 387 -145 781 -476 1001 -208 139 -484 205 -729 174z m239 -300 c318 -45
575 -280 653 -598 26 -108 21 -276 -12 -387 -64 -218 -209 -391 -410 -489 -97
-48 -173 -66 -295 -73 -206 -11 -387 51 -549 187 -187 158 -294 434 -261 678
24 186 94 328 224 458 180 179 406 257 650 224z"/>
<path d="M2765 3542 c-16 -11 -91 -81 -164 -156 l-135 -135 -52 49 c-29 28
-65 55 -79 60 -131 50 -250 -83 -186 -208 24 -46 217 -237 255 -252 36 -13 92
-13 119 1 31 16 435 419 453 451 29 56 13 127 -40 177 -36 34 -128 41 -171 13z"/>
</g>
</svg>
