<?xml version="1.0" standalone="no"?>
<!DOCTYPE svg PUBLIC "-//W3C//DTD SVG 20010904//EN"
 "http://www.w3.org/TR/2001/REC-SVG-20010904/DTD/svg10.dtd">
<svg version="1.0" xmlns="http://www.w3.org/2000/svg"
 width="512.000000pt" height="512.000000pt" viewBox="0 0 512.000000 512.000000"
 preserveAspectRatio="xMidYMid meet">

<g transform="translate(0.000000,512.000000) scale(0.100000,-0.100000)"
fill="#000000" stroke="none">
<path d="M610 4960 l0 -150 -300 0 -300 0 0 -2400 0 -2400 2550 0 2550 0 0
2400 0 2400 -300 0 -300 0 0 150 0 150 -150 0 -150 0 0 -150 0 -150 -300 0
-300 0 0 150 0 150 -150 0 -150 0 0 -150 0 -150 -300 0 -300 0 0 150 0 150
-150 0 -150 0 0 -150 0 -150 -300 0 -300 0 0 150 0 150 -150 0 -150 0 0 -150
0 -150 -300 0 -300 0 0 150 0 150 -150 0 -150 0 0 -150z m0 -600 l0 -150 150
0 150 0 0 150 0 150 300 0 300 0 0 -150 0 -150 150 0 150 0 0 150 0 150 300 0
300 0 0 -150 0 -150 150 0 150 0 0 150 0 150 300 0 300 0 0 -150 0 -150 150 0
150 0 0 150 0 150 300 0 300 0 0 -150 0 -150 150 0 150 0 0 150 0 150 150 0
150 0 0 -445 0 -445 -2250 0 -2250 0 0 445 0 445 150 0 150 0 0 -150z m4200
-2545 l0 -1505 -2250 0 -2250 0 0 1505 0 1505 2250 0 2250 0 0 -1505z"/>
<path d="M610 2720 l0 -150 450 0 450 0 0 150 0 150 -450 0 -450 0 0 -150z"/>
<path d="M2110 2720 l0 -150 450 0 450 0 0 150 0 150 -450 0 -450 0 0 -150z"/>
<path d="M3610 2720 l0 -150 450 0 450 0 0 150 0 150 -450 0 -450 0 0 -150z"/>
<path d="M610 2120 l0 -150 450 0 450 0 0 150 0 150 -450 0 -450 0 0 -150z"/>
<path d="M2110 2120 l0 -150 450 0 450 0 0 150 0 150 -450 0 -450 0 0 -150z"/>
<path d="M3610 2120 l0 -150 450 0 450 0 0 150 0 150 -450 0 -450 0 0 -150z"/>
<path d="M610 1520 l0 -150 450 0 450 0 0 150 0 150 -450 0 -450 0 0 -150z"/>
<path d="M2110 1520 l0 -150 450 0 450 0 0 150 0 150 -450 0 -450 0 0 -150z"/>
<path d="M3610 1520 l0 -150 450 0 450 0 0 150 0 150 -450 0 -450 0 0 -150z"/>
<path d="M610 920 l0 -150 450 0 450 0 0 150 0 150 -450 0 -450 0 0 -150z"/>
<path d="M2110 920 l0 -150 450 0 450 0 0 150 0 150 -450 0 -450 0 0 -150z"/>
<path d="M3610 920 l0 -150 450 0 450 0 0 150 0 150 -450 0 -450 0 0 -150z"/>
</g>
</svg>
