<?xml version="1.0" standalone="no"?>
<!DOCTYPE svg PUBLIC "-//W3C//DTD SVG 20010904//EN"
 "http://www.w3.org/TR/2001/REC-SVG-20010904/DTD/svg10.dtd">
<svg version="1.0" xmlns="http://www.w3.org/2000/svg"
 width="512.000000pt" height="512.000000pt" viewBox="0 0 512.000000 512.000000"
 preserveAspectRatio="xMidYMid meet">

<g transform="translate(0.000000,512.000000) scale(0.100000,-0.100000)"
fill="#000000" stroke="none">
<path d="M941 4899 c-430 -50 -790 -366 -909 -797 l-27 -97 0 -1445 0 -1445
27 -97 c121 -438 479 -748 921 -797 133 -15 3081 -15 3214 0 442 49 800 359
921 797 l27 97 0 1445 0 1445 -27 97 c-121 438 -479 748 -921 797 -117 13
-3114 13 -3226 0z m3244 -434 c39 -8 108 -33 154 -56 108 -53 221 -162 272
-261 l34 -68 -848 -848 c-565 -565 -867 -860 -902 -881 -92 -56 -187 -84 -305
-89 -126 -5 -209 12 -320 64 -73 35 -98 59 -933 893 -748 746 -857 859 -852
879 11 46 87 151 150 211 75 70 198 135 295 155 100 22 3153 22 3255 1z
m-2227 -2449 c101 -67 226 -123 340 -153 86 -23 116 -26 262 -26 146 0 176 3
262 26 113 30 239 87 341 153 54 36 254 229 800 773 l727 725 0 -1159 c0
-1288 3 -1221 -68 -1365 -54 -110 -168 -223 -282 -279 -154 -75 -45 -71 -1780
-71 -1735 0 -1626 -4 -1780 71 -114 56 -228 169 -282 279 -71 144 -68 77 -68
1365 l0 1159 728 -725 c545 -543 745 -737 800 -773z"/>
</g>
</svg>
