<?xml version="1.0" standalone="no"?>
<!DOCTYPE svg PUBLIC "-//W3C//DTD SVG 20010904//EN"
 "http://www.w3.org/TR/2001/REC-SVG-20010904/DTD/svg10.dtd">
<svg version="1.0" xmlns="http://www.w3.org/2000/svg"
 width="512.000000pt" height="512.000000pt" viewBox="0 0 512.000000 512.000000"
 preserveAspectRatio="xMidYMid meet">

<g transform="translate(0.000000,512.000000) scale(0.100000,-0.100000)"
fill="#000000" stroke="none">
<path d="M213 4722 c-63 -22 -115 -61 -154 -115 -63 -87 -59 43 -57 -2052 l3
-1910 22 -47 c27 -60 94 -127 158 -158 l50 -25 1930 0 1930 0 63 34 c70 38
100 69 140 145 l27 51 0 1930 0 1930 -25 50 c-31 64 -98 131 -158 158 l-47 22
-1915 2 c-1818 2 -1918 2 -1967 -15z m910 -616 c147 -72 230 -231 205 -394
-34 -221 -267 -364 -478 -292 -331 112 -346 560 -23 696 50 21 71 24 149 21
74 -2 100 -8 147 -31z m1942 -947 c351 -43 531 -228 601 -620 15 -81 18 -190
21 -791 l4 -698 -320 0 -321 0 0 553 c0 554 -6 688 -35 784 -23 77 -72 141
-135 177 -53 30 -60 31 -171 31 -113 0 -118 -1 -185 -35 -58 -29 -76 -45 -110
-96 -78 -117 -79 -118 -82 -806 l-3 -608 -319 0 -320 0 0 1035 0 1035 305 0
305 0 0 -140 c0 -77 3 -140 8 -139 4 0 28 28 53 62 60 81 145 150 244 198 135
64 268 81 460 58z m-1785 -1074 l0 -1035 -320 0 -320 0 0 1035 0 1035 320 0
320 0 0 -1035z"/>
<path d="M4726 954 c-72 -23 -156 -110 -180 -188 -45 -142 18 -286 154 -357
64 -34 186 -34 250 0 61 32 107 76 138 136 22 42 27 63 27 130 0 67 -5 88 -27
131 -70 133 -216 192 -362 148z m210 -52 c48 -24 100 -81 122 -131 8 -20 15
-65 15 -101 1 -145 -104 -252 -249 -253 -144 -1 -264 115 -264 258 0 108 65
198 175 242 44 18 152 10 201 -15z"/>
<path d="M4720 675 c0 -148 1 -155 20 -155 18 0 20 7 20 65 l0 65 30 0 c27 0
36 -8 72 -65 33 -51 47 -65 66 -65 27 0 29 -5 -35 90 -28 42 -29 50 -4 50 25
0 61 45 61 76 0 36 -20 71 -47 83 -13 6 -60 11 -103 11 l-80 0 0 -155z m168
103 c19 -19 15 -66 -7 -78 -11 -5 -42 -10 -70 -10 l-51 0 0 50 0 50 58 0 c32
0 63 -5 70 -12z"/>
</g>
</svg>
