<?xml version="1.0" standalone="no"?>
<!DOCTYPE svg PUBLIC "-//W3C//DTD SVG 20010904//EN"
 "http://www.w3.org/TR/2001/REC-SVG-20010904/DTD/svg10.dtd">
<svg version="1.0" xmlns="http://www.w3.org/2000/svg"
 width="512.000000pt" height="512.000000pt" viewBox="0 0 512.000000 512.000000"
 preserveAspectRatio="xMidYMid meet">

<g transform="translate(0.000000,512.000000) scale(0.100000,-0.100000)"
fill="#000000" stroke="none">
<path d="M1941 4521 c-326 -154 -604 -290 -617 -302 -45 -42 -48 -125 -7 -171
10 -12 95 -59 188 -104 l170 -84 5 -232 c5 -228 6 -234 31 -283 96 -181 338
-321 639 -370 114 -18 358 -19 481 -1 l86 12 7 -105 c13 -211 13 -207 -59
-344 -36 -68 -65 -134 -65 -146 0 -32 43 -71 78 -71 39 0 65 23 100 87 l28 53
29 -61 c18 -36 40 -66 55 -74 54 -28 114 12 112 74 0 16 -25 77 -55 137 l-55
109 -7 196 -7 195 43 17 c70 27 191 109 252 172 33 32 71 85 89 123 l33 66 3
206 3 207 172 84 c194 95 223 121 214 192 -11 83 42 52 -757 440 -333 161
-529 251 -555 253 -36 4 -106 -26 -634 -275z m1372 -246 c202 -98 364 -182
360 -186 -4 -4 -156 -78 -337 -164 l-329 -158 -81 84 c-45 46 -140 146 -212
222 -115 121 -134 137 -163 137 -42 0 -81 -38 -81 -80 0 -27 24 -56 163 -202
89 -94 175 -185 190 -204 l28 -33 -116 -55 -115 -55 -393 190 c-215 105 -467
227 -559 271 -93 45 -168 84 -168 88 0 3 240 118 533 256 l532 250 190 -91
c105 -50 356 -172 558 -270z m-1008 -719 c200 -97 289 -136 315 -136 23 0 79
21 160 60 68 33 124 59 126 57 1 -1 5 -88 9 -193 l7 -192 -54 -12 c-84 -18
-351 -25 -462 -11 -245 31 -439 127 -531 263 l-35 53 0 167 0 167 93 -44 c50
-23 218 -104 372 -179z m1035 41 c0 -142 0 -143 -30 -191 -40 -62 -117 -136
-178 -169 l-49 -27 -6 83 c-4 45 -7 137 -7 204 l0 122 123 60 c67 32 128 60
135 60 9 1 12 -34 12 -142z"/>
<path d="M772 4374 c-107 -28 -202 -110 -251 -214 l-26 -55 0 -1150 0 -1150
29 -57 c39 -77 108 -144 186 -182 l65 -31 316 -3 c291 -3 317 -1 337 15 35 29
38 74 9 109 l-25 29 -309 5 -310 5 -41 28 c-23 15 -54 46 -69 69 l-28 42 -3
1113 c-2 1085 -2 1114 17 1151 26 51 91 108 138 121 21 6 98 11 171 11 128 0
134 1 157 25 39 38 27 102 -22 124 -35 16 -276 13 -341 -5z"/>
<path d="M4027 4370 c-44 -35 -43 -93 2 -127 10 -8 56 -12 131 -13 63 0 132
-5 153 -11 47 -13 112 -70 138 -121 19 -37 19 -66 17 -1151 l-3 -1113 -28 -42
c-15 -23 -46 -54 -69 -69 l-42 -28 -1330 -5 c-732 -3 -1332 -6 -1333 -8 -1 -1
-11 -12 -23 -24 -26 -28 -26 -68 1 -102 l20 -26 185 0 184 0 0 -44 c0 -48 -22
-176 -38 -216 -9 -23 -22 -27 -148 -53 -363 -73 -596 -201 -640 -352 -27 -96
-1 -169 89 -252 144 -131 413 -218 832 -270 198 -24 674 -24 875 1 403 49 686
140 824 267 75 68 100 117 101 194 0 127 -106 233 -322 319 -93 37 -282 90
-364 101 -25 4 -51 10 -57 14 -17 10 -42 117 -49 208 l-6 83 609 2 609 3 65
31 c78 38 147 105 186 182 l29 57 0 1150 0 1150 -26 56 c-50 106 -143 185
-254 214 -37 9 -103 15 -176 15 -101 0 -120 -3 -142 -20z m-1054 -2928 c12
-183 82 -371 188 -504 16 -20 29 -39 29 -42 0 -10 -188 -65 -300 -88 -99 -20
-144 -23 -330 -23 -164 0 -236 5 -305 18 -109 21 -305 77 -305 87 0 3 24 36
53 73 110 138 187 349 187 513 l0 54 389 0 388 0 6 -88z m-1113 -401 c-5 -11
-37 -44 -71 -73 -70 -61 -83 -84 -67 -128 12 -37 93 -81 233 -128 427 -143
981 -118 1370 62 60 28 76 40 82 63 12 47 4 65 -65 137 -37 38 -62 71 -56 73
18 6 167 -34 251 -68 103 -41 155 -72 198 -121 46 -50 42 -77 -17 -131 -105
-96 -376 -179 -729 -224 -188 -23 -670 -23 -858 0 -353 45 -625 129 -731 226
-57 52 -60 80 -16 129 59 65 210 134 406 186 77 20 83 20 70 -3z"/>
<path d="M819 4057 c-39 -30 -39 -23 -39 -1107 l0 -1051 25 -24 24 -25 1731 0
1731 0 24 25 25 24 0 1051 c0 780 -3 1057 -12 1073 -21 40 -40 46 -134 47 -78
0 -95 -3 -118 -21 -20 -16 -26 -29 -26 -59 0 -49 35 -80 91 -80 l39 0 0 -950
0 -950 -1620 0 -1620 0 0 950 0 950 75 0 c67 0 79 3 100 25 16 15 25 36 25 55
0 19 -9 40 -25 55 -23 24 -29 25 -152 25 -85 -1 -133 -5 -144 -13z"/>
</g>
</svg>
